/vscmnt/brussel_pixiu_data/_data_brussel/112/vsc11236/PredSimResults/SUBJ06mtu3D/worker9.mot
version=1
nRows=11
nColumns=50
inDegrees=yes
endheader
                time	         pelvis_tilt	         pelvis_list	     pelvis_rotation	           pelvis_tx	           pelvis_ty	           pelvis_tz	       hip_flexion_r	     hip_adduction_r	      hip_rotation_r	        knee_angle_r	       ankle_angle_r	         mtp_angle_r	       hip_flexion_l	     hip_adduction_l	      hip_rotation_l	        knee_angle_l	       ankle_angle_l	         mtp_angle_l	    lumbar_extension	      lumbar_bending	     lumbar_rotation	 ercspn_r/activation	 intobl_r/activation	 extobl_r/activation	    abd_r/activation	    add_r/activation	hamstrings_r/activation	bifemsh_r/activation	glut_max_r/activation	iliopsoas_r/activation	rect_fem_r/activation	  vasti_r/activation	gastroc_r/activation	 soleus_r/activation	tib_ant_r/activation	 ercspn_l/activation	 intobl_l/activation	 extobl_l/activation	    abd_l/activation	    add_l/activation	hamstrings_l/activation	bifemsh_l/activation	glut_max_l/activation	iliopsoas_l/activation	rect_fem_l/activation	  vasti_l/activation	gastroc_l/activation	 soleus_l/activation	tib_ant_l/activation	
          0.62249630	         -6.54115680	          0.65817027	         -4.53174009	          0.69719586	          0.93230207	          0.01061949	        -11.65292502	          0.27570489	         -1.22580053	         -7.96522030	          5.56102081	         35.19594484	         30.93129176	         -0.70697930	         -3.37626283	         -5.53856586	          1.02195325	          0.23297414	         -5.70748921	          0.88476512	          1.53281405	          0.12408890	          0.00999999	          0.00999999	          0.06589715	          0.01000002	          0.01000010	          0.14499500	          0.04519528	          0.50596558	          0.02567040	          0.01000000	          0.36734121	          0.30602124	          0.02125917	          0.15633166	          0.13792604	          0.00999999	          0.00999999	          0.27326003	          0.16541106	          0.20440980	          0.04918666	          0.14574490	          0.01000001	          0.00999999	          0.02125917	          0.00999999	          0.39982582	
          0.63494623	         -6.61613368	          0.58903511	         -4.53921324	          0.71399756	          0.93055177	          0.00979104	        -11.94961867	          0.23405242	         -1.67386068	         -9.09806031	          4.67230115	         37.02952570	         31.07974933	         -0.57488080	         -3.03903237	         -7.45553954	          0.67022851	          0.19844944	         -5.40530573	          0.61525460	          1.94805518	          0.12412212	          0.00999999	          0.00999999	          0.05457327	          0.01207497	          0.01513611	          0.12007880	          0.03742884	          0.48712759	          0.02125915	          0.01804656	          0.33756654	          0.29080454	          0.01760596	          0.12946735	          0.11422460	          0.00999999	          0.00999999	          0.22630254	          0.15349293	          0.16928365	          0.08900200	          0.12069984	          0.00999999	          0.00999999	          0.01760596	          0.01207498	          0.44247215	
          0.64739615	         -6.67185542	          0.54215341	         -4.51460510	          0.73114926	          0.92907087	          0.00884785	        -12.06547710	          0.15017300	         -2.13693070	        -10.60482814	          3.65385398	         38.90067369	         31.01750284	         -0.45894887	         -2.72956448	         -9.10639948	          0.31339501	          0.19059882	         -5.08807569	          0.32135422	          2.34717136	          0.11526168	          0.00999999	          0.00999999	          0.04519530	          0.01000000	          0.01253520	          0.09944424	          0.03099700	          0.47698903	          0.01760595	          0.01760596	          0.29566269	          0.27054588	          0.01458052	          0.14713633	          0.09459604	          0.00999999	          0.06560964	          0.21633337	          0.13932857	          0.14019365	          0.11428620	          0.09995856	          0.00999999	          0.00999999	          0.01458052	          0.01000000	          0.52888861	
          0.65984608	         -6.70796582	          0.49127138	         -4.45636174	          0.74842692	          0.92796405	          0.00778913	        -11.93039758	          0.04813489	         -2.62128760	        -12.58298343	          2.48076792	         40.76012649	         30.83666482	         -0.34690324	         -2.51934358	        -10.55650285	         -0.19829968	          0.16866512	         -4.78465133	          0.03220662	          2.72070189	          0.14324444	          0.00999999	          0.00999999	          0.03742886	          0.01000002	          0.01909386	          0.08235556	          0.02567042	          0.45296383	          0.01458051	          0.01458052	          0.24485548	          0.24642952	          0.01207498	          0.15615842	          0.07834049	          0.00999999	          0.11526664	          0.27009890	          0.12562813	          0.11610252	          0.14681030	          0.08278150	          0.00999999	          0.00999999	          0.01207498	          0.00999999	          0.57762327	
          0.67229600	         -6.72300744	          0.44915827	         -4.37182767	          0.76565393	          0.92731170	          0.00663741	        -11.48438151	         -0.09326111	         -3.12824271	        -15.11392798	          1.14897019	         42.48619344	         30.61912675	         -0.22386991	         -2.37425500	        -12.00793817	         -0.50669584	          0.13599337	         -4.51058433	         -0.26733681	          3.06688070	          0.17607938	          0.00999999	          0.00999999	          0.03099701	          0.07567438	          0.02868419	          0.06820344	          0.02125917	          0.41329153	          0.01207497	          0.01207498	          0.20277908	          0.20956804	          0.00999999	          0.15814741	          0.06487831	          0.00999999	          0.15989501	          0.28512404	          0.11374457	          0.09615125	          0.18082991	          0.06855618	          0.00999999	          0.03516760	          0.00999999	          0.00999999	          0.60543670	
          0.68474593	         -6.71794680	          0.42640812	         -4.26525972	          0.78265524	          0.92723132	          0.00541672	        -10.68912565	         -0.29244344	         -3.66976768	        -18.22959628	         -0.33198841	         43.81178781	         30.39011716	         -0.07777835	         -2.25757590	        -13.51157614	         -0.44434920	          0.10239488	         -4.27835217	         -0.58824935	          3.38420447	          0.20283855	          0.00999999	          0.00999999	          0.02567043	          0.14571570	          0.05003214	          0.05648324	          0.01760596	          0.35699483	          0.00999999	          0.00999999	          0.16793315	          0.17355549	          0.00999999	          0.15758811	          0.05372951	          0.00999999	          0.18915235	          0.28596587	          0.10217719	          0.07962845	          0.18793341	          0.05677536	          0.00999999	          0.07328219	          0.00999999	          0.00999999	          0.59230706	
          0.69719586	         -6.69529763	          0.42347289	         -4.14084583	          0.79932703	          0.92779673	          0.00415636	         -9.54803275	         -0.55927164	         -4.26659731	        -21.90234051	         -1.86399133	         44.25832152	         30.11245893	          0.09633030	         -2.13437934	        -14.99433082	          0.05720561	          0.09682135	         -4.09185255	         -0.92966784	          3.67266100	          0.21916089	          0.00999999	          0.00999999	          0.02125918	          0.18331214	          0.04143468	          0.04677707	          0.01458052	          0.29564819	          0.00999999	          0.00999999	          0.13907522	          0.14373140	          0.00999999	          0.15272376	          0.04449653	          0.00999999	          0.20920146	          0.24932142	          0.09352850	          0.06594496	          0.17048666	          0.04701898	          0.00999999	          0.13191421	          0.00999999	          0.00999999	          0.51033225	
          0.70964578	         -6.65955024	          0.43159177	         -3.99977653	          0.81563203	          0.92906723	          0.00289333	         -8.09792144	         -0.89497751	         -4.92304531	        -26.02685374	         -3.47873847	         43.60138143	         29.69446862	          0.29232582	         -1.98920762	        -16.28014205	          0.99206518	          0.19301761	         -3.94783248	         -1.28149149	          3.92985311	          0.22468074	          0.00999999	          0.00999999	          0.01760596	          0.19043497	          0.03431455	          0.05296837	          0.01207498	          0.24484348	          0.00999999	          0.00999999	          0.11517628	          0.11903234	          0.00999999	          0.14141627	          0.03685017	          0.00999999	          0.21693246	          0.20647758	          0.08551774	          0.05461286	          0.15294317	          0.03893915	          0.00999999	          0.16389712	          0.00999999	          0.00999999	          0.42263584	
          0.72209571	         -6.61526892	          0.43605636	         -3.84184802	          0.83155379	          0.93102143	          0.00165433	         -6.39779626	         -1.29198381	         -5.63475332	        -30.41032561	         -5.36069297	         41.97876764	         29.08020144	          0.49342056	         -1.82666965	        -17.21161460	          2.06022572	          0.39302391	         -3.84334284	         -1.62647319	          4.15268473	          0.21825978	          0.00999999	          0.00999999	          0.01458052	          0.19121917	          0.02841793	          0.07951207	          0.00999999	          0.20276913	          0.00999999	          0.00999999	          0.09538418	          0.09857761	          0.00999999	          0.13284178	          0.03051777	          0.00999999	          0.21539188	          0.17099610	          0.08167365	          0.04522809	          0.13097178	          0.03224778	          0.00999999	          0.17652603	          0.00999999	          0.00999999	          0.35000938	
          0.73454563	         -6.56546525	          0.42062331	         -3.66832524	          0.84710160	          0.93352571	          0.00045596	         -4.51845888	         -1.73925315	         -6.39852829	        -34.88560854	         -7.42805302	         39.27238915	         28.26280673	          0.67871674	         -1.64918928	        -17.73057724	          3.01461571	          0.66324140	         -3.77535177	         -1.94496240	          4.33978304	          0.22216029	          0.00999999	          0.00999999	          0.01207498	          0.18827926	          0.02353458	          0.09159693	          0.00999999	          0.16792492	          0.00999999	          0.00999999	          0.07899319	          0.08163785	          0.06548647	          0.11001405	          0.02527354	          0.00999999	          0.21077995	          0.14161183	          0.07907107	          0.03745601	          0.10963184	          0.02670626	          0.00999999	          0.18261065	          0.00999999	          0.00999999	          0.30231062	
          0.74699556	         -6.51136114	          0.37119298	         -3.48042369	          0.86228630	          0.93638744	         -0.00070284	         -2.55098585	         -2.21931271	         -7.19646668	        -39.33047250	         -9.23321625	         35.19171328	         27.27218098	          0.83008928	         -1.45455402	        -17.88724742	          3.83414522	          0.96837756	         -3.74288401	         -2.21616248	          4.49308947	          0.22759555	          0.00999999	          0.01000000	          0.00999999	          0.15592514	          0.03404351	          0.12345432	          0.00999999	          0.14040273	          0.00999999	          0.00999999	          0.06541886	          0.06760906	          0.19441665	          0.09110904	          0.02093049	          0.00999999	          0.20759572	          0.11727700	          0.07577964	          0.03101951	          0.09836774	          0.02211701	          0.00999999	          0.17277036	          0.00999999	          0.00999999	          0.27112995	
